# xmcd
#
# Track frame offsets: 
#        150
#        27885
#        50756
#        72833
#        93729
#        110508
#        121090
#        135288
#        151820
#        166086
#        183077
#
# Disc length: 2677 seconds
#
# Revision: 2
# Processed by: cddbd v1.5.1PL0 Copyright (c) Steve Scherf et al.
# Submitted via: ExactAudioCopy v0.95a5
#
DISCID=840a730b
DTITLE=Jimi Hendrix - Drivin' South
DYEAR=2000
DGENRE=Rock
TTITLE0=Driving South
TTITLE1=Travellin' To California
TTITLE2=I'm A Man
TTITLE3=I've Got A Sweet Little Angel
TTITLE4=Killing Floor
TTITLE5=Bleeding Heart
TTITLE6=Bright Lights Big City
TTITLE7=Get Out My Life, Woman
TTITLE8=Last Night
TTITLE9=Baby What You Want Me To Do
TTITLE10=What'd I Say
EXTD=
EXTT0=
EXTT1=
EXTT2=
EXTT3=
EXTT4=
EXTT5=
EXTT6=
EXTT7=
EXTT8=
EXTT9=
EXTT10=
PLAYORDER=
